<?xml version="1.0" encoding="utf-8"?>
<!-- Generator: Adobe Illustrator 19.0.0, SVG Export Plug-In . SVG Version: 6.00 Build 0)  -->
<svg version="1.1" id="Layer_1" xmlns="http://www.w3.org/2000/svg" xmlns:xlink="http://www.w3.org/1999/xlink" x="0px" y="0px"
	 viewBox="0 0 452.5 250.4" style="enable-background:new 0 0 452.5 250.4;" xml:space="preserve">
<style type="text/css">
	.st0{fill:none;}
	.st1{fill:none;stroke:#EBB240;stroke-miterlimit:10;}
</style>
<line id="XMLID_1_" class="st0" x1="232.7" y1="189.3" x2="265.7" y2="140.7"/>
<line id="XMLID_2_" class="st0" x1="266" y1="141" x2="266" y2="128"/>
<line id="XMLID_3_" class="st0" x1="266" y1="128" x2="327" y2="78.7"/>
<line id="XMLID_4_" class="st0" x1="327" y1="78.7" x2="397.7" y2="67.3"/>
<line id="XMLID_5_" class="st0" x1="397.7" y1="67.3" x2="453" y2="98"/>
<line id="XMLID_6_" class="st0" x1="453" y1="98" x2="453" y2="116"/>
<line id="XMLID_7_" class="st0" x1="453" y1="116" x2="414" y2="160.3"/>
<line id="XMLID_8_" class="st1" x1="414" y1="160.3" x2="379.7" y2="150.3"/>
<line id="XMLID_9_" class="st1" x1="232.7" y1="189.3" x2="264.5" y2="142.4"/>
<line id="XMLID_10_" class="st1" x1="265.5" y1="141" x2="265.5" y2="125"/>
<line id="XMLID_11_" class="st1" x1="265.5" y1="125" x2="327" y2="78.7"/>
<line id="XMLID_12_" class="st1" x1="327" y1="78.7" x2="397.7" y2="67.3"/>
<line id="XMLID_13_" class="st1" x1="397.7" y1="67.3" x2="453" y2="98"/>
<line id="XMLID_14_" class="st1" x1="452.5" y1="98" x2="452.5" y2="114"/>
<line id="XMLID_15_" class="st1" x1="452.5" y1="114" x2="414" y2="160.3"/>
<line id="XMLID_16_" class="st1" x1="388" y1="85.7" x2="447.7" y2="99.7"/>
<line id="XMLID_17_" class="st1" x1="327" y1="88.3" x2="355" y2="87.3"/>
<line id="XMLID_18_" class="st1" x1="355" y1="87.3" x2="384.3" y2="112"/>
<line id="XMLID_19_" class="st1" x1="384.3" y1="112" x2="377.3" y2="165.9"/>
<line id="XMLID_20_" class="st1" x1="377" y1="165.5" x2="370" y2="165.5"/>
<line id="XMLID_21_" class="st1" x1="370" y1="165.5" x2="366.3" y2="210.7"/>
<line id="XMLID_22_" class="st1" x1="366.3" y1="210.7" x2="320.3" y2="244"/>
<line id="XMLID_23_" class="st1" x1="320.3" y1="243.5" x2="256.7" y2="249.2"/>
<line id="XMLID_24_" class="st1" x1="0.5" y1="40.5" x2="49.5" y2="4.5"/>
<line id="XMLID_25_" class="st1" x1="49.5" y1="4.5" x2="104.5" y2="0"/>
<line id="XMLID_26_" class="st1" x1="104.5" y1="0" x2="388" y2="63.5"/>
<line id="XMLID_27_" class="st1" x1="80" y1="13.5" x2="324.5" y2="75.5"/>
<line id="XMLID_30_" class="st1" x1="256.6" y1="250.4" x2="0.5" y2="114"/>
<line id="XMLID_31_" class="st1" x1="0.5" y1="114" x2="0.5" y2="41"/>
<line id="XMLID_32_" class="st1" x1="219.6" y1="184.1" x2="216.9" y2="229.2"/>
<line id="XMLID_33_" class="st1" x1="296.5" y1="109.5" x2="362.3" y2="107"/>
<line id="XMLID_34_" class="st1" x1="362.3" y1="107" x2="351.5" y2="214"/>
<line id="XMLID_35_" class="st1" x1="351.5" y1="214" x2="249.2" y2="222"/>
<line id="XMLID_36_" class="st1" x1="249.2" y1="222" x2="253.5" y2="169"/>
<line id="XMLID_28_" class="st1" x1="232.7" y1="189.3" x2="11" y2="98"/>
<line id="XMLID_29_" class="st1" x1="265.5" y1="125" x2="19" y2="44.5"/>
</svg>
