<?xml version="1.0" encoding="utf-8"?>
<!-- Generator: Adobe Illustrator 19.0.0, SVG Export Plug-In . SVG Version: 6.00 Build 0)  -->
<svg version="1.1" id="Layer_1" xmlns="http://www.w3.org/2000/svg" xmlns:xlink="http://www.w3.org/1999/xlink" x="0px" y="0px"
	 viewBox="0 0 310 241" style="enable-background:new 0 0 310 241;" xml:space="preserve">
<style type="text/css">
	.st0{fill:none;stroke:#EBB240;stroke-miterlimit:10;}
</style>
<line id="XMLID_37_" class="st0" x1="58" y1="51.5" x2="54" y2="137"/>
<line id="XMLID_38_" class="st0" x1="94" y1="22" x2="162" y2="19.5"/>
<line id="XMLID_39_" class="st0" x1="204.6" y1="33.9" x2="69" y2="186.5"/>
<line id="XMLID_41_" class="st0" x1="31.5" y1="2.5" x2="114" y2="0"/>
<line id="XMLID_43_" class="st0" x1="10" y1="155" x2="54" y2="191"/>
<line id="XMLID_44_" class="st0" x1="87" y1="191.5" x2="149" y2="191.5"/>
<line id="XMLID_46_" class="st0" x1="153" y1="195.5" x2="154.5" y2="218.5"/>
<line id="XMLID_47_" class="st0" x1="76" y1="222.5" x2="98.5" y2="229"/>
<line id="XMLID_48_" class="st0" x1="118" y1="229" x2="143.5" y2="222.5"/>
<line id="XMLID_49_" class="st0" x1="64.5" y1="241" x2="83.5" y2="235"/>
<line id="XMLID_50_" class="st0" x1="83" y1="235.5" x2="128" y2="235.5"/>
<line id="XMLID_51_" class="st0" x1="128" y1="235.5" x2="153.8" y2="241"/>
<line id="XMLID_53_" class="st0" x1="0" y1="29.5" x2="2.5" y2="137"/>
<line id="XMLID_54_" class="st0" x1="214" y1="48" x2="224" y2="83.3"/>
<line id="XMLID_59_" class="st0" x1="30.2" y1="6.3" x2="55.4" y2="14.9"/>
<line id="XMLID_60_" class="st0" x1="35.5" y1="37.7" x2="55.4" y2="14.9"/>
<line id="XMLID_61_" class="st0" x1="10.8" y1="27.3" x2="35.5" y2="37.7"/>
<line id="XMLID_63_" class="st0" x1="21.6" y1="25.3" x2="36.2" y2="12"/>
<line id="XMLID_64_" class="st0" x1="26.8" y1="26.3" x2="40.2" y2="13.8"/>
<line id="XMLID_65_" class="st0" x1="36.2" y1="12" x2="41.2" y2="13.3"/>
<line id="XMLID_66_" class="st0" x1="29.8" y1="27.3" x2="44.2" y2="14.6"/>
<line id="XMLID_67_" class="st0" x1="33.5" y1="29.1" x2="39.4" y2="21.6"/>
<line id="XMLID_68_" class="st0" x1="39.4" y1="21.6" x2="48.3" y2="16.5"/>
<line id="XMLID_69_" class="st0" x1="24.7" y1="13.3" x2="14.6" y2="22.3"/>
<line id="XMLID_70_" class="st0" x1="14.6" y1="22.3" x2="20.4" y2="23.3"/>
<line id="XMLID_71_" class="st0" x1="20.4" y1="23.3" x2="24.3" y2="19"/>
<line id="XMLID_72_" class="st0" x1="24.3" y1="19" x2="24.7" y2="16.5"/>
<line id="XMLID_73_" class="st0" x1="24.7" y1="16.5" x2="26.4" y2="14.9"/>
<line id="XMLID_74_" class="st0" x1="26.4" y1="14.9" x2="34.2" y2="10.6"/>
<line id="XMLID_75_" class="st0" x1="34.2" y1="10.6" x2="28.9" y2="9.1"/>
<line id="XMLID_76_" class="st0" x1="28.9" y1="9.1" x2="27.6" y2="10.6"/>
<path id="XMLID_62_" class="st0" d="M58,51.5C58,35.2,74.1,22,94,22"/>
<path id="XMLID_78_" class="st0" d="M52.9,190.5c5.3,3.4,12.5,1.6,16.1-4"/>
<path id="XMLID_79_" class="st0" d="M2.4,137.1c0.4,9.8,4.4,17.6,8.8,17.4"/>
<path id="XMLID_80_" class="st0" d="M0,29.5c0-14.9,14.1-27,31.5-27"/>
<line id="XMLID_42_" class="st0" x1="153.5" y1="3.8" x2="200" y2="20.8"/>
<path id="XMLID_81_" class="st0" d="M199.3,20.6c4.9,1.8,7.1,8.2,4.8,14.3"/>
<line id="XMLID_40_" class="st0" x1="212" y1="81.8" x2="211.5" y2="155"/>
<path id="XMLID_82_" class="st0" d="M211.5,155c0,16.6-11.3,30-25.3,30"/>
<line id="XMLID_52_" class="st0" x1="186.3" y1="185" x2="166.5" y2="186.5"/>
<line id="XMLID_55_" class="st0" x1="223.5" y1="83" x2="223.5" y2="115"/>
<path id="XMLID_56_" class="st0" d="M223.5,115c0,5.3,5.3,9.5,11.8,9.5"/>
<line id="XMLID_57_" class="st0" x1="235.3" y1="124.5" x2="299.8" y2="119.8"/>
<line id="XMLID_58_" class="st0" x1="212" y1="123.3" x2="223.5" y2="128.5"/>
<path id="XMLID_77_" class="st0" d="M223.5,128.5c0,1.5,5.3,2.8,11.8,2.8"/>
<line id="XMLID_83_" class="st0" x1="235.3" y1="131.3" x2="310" y2="124.5"/>
<path id="XMLID_84_" class="st0" d="M176.4,233.8c0,4-10.1,7.3-22.6,7.3"/>
<line id="XMLID_85_" class="st0" x1="176.5" y1="234" x2="176.5" y2="226"/>
<line id="XMLID_86_" class="st0" x1="176.5" y1="226" x2="158" y2="222.5"/>
<line id="XMLID_87_" class="st0" x1="158" y1="214.3" x2="174.8" y2="210"/>
<line id="XMLID_88_" class="st0" x1="174.8" y1="210" x2="176.4" y2="200"/>
<line id="XMLID_89_" class="st0" x1="176.4" y1="200" x2="159.5" y2="194.3"/>
<path id="XMLID_90_" class="st0" d="M39.5,233.8c0,4,11.1,7.3,24.8,7.3"/>
<line id="XMLID_91_" class="st0" x1="39.5" y1="234" x2="39.5" y2="228"/>
<line id="XMLID_92_" class="st0" x1="39.7" y1="228" x2="60.8" y2="222.5"/>
<line id="XMLID_45_" class="st0" x1="64.5" y1="197" x2="64.5" y2="217"/>
<line id="XMLID_93_" class="st0" x1="61" y1="214.3" x2="47.8" y2="210"/>
<line id="XMLID_94_" class="st0" x1="47.5" y1="210" x2="47.5" y2="200"/>
<line id="XMLID_95_" class="st0" x1="47.5" y1="200" x2="61" y2="197"/>
</svg>
